<svg xmlns="http://www.w3.org/2000/svg" width="378" height="272" fill="none" viewBox="0 0 378 272"><path fill="#49BD44" d="M172.789 123.713C203.827 95.6899 170.687 75.5296 143.819 61.1949C126.093 51.739 114.914 42.448 114.914 42.448C114.914 42.448 67.5589 121.884 167.144 128.363C167.144 128.363 127.27 107.721 128.404 79.5616C128.404 79.5616 135.291 103.395 172.789 123.713Z"/><path fill="#113A10" fill-opacity=".067" d="M222.697 165.376C269.051 171.639 281.979 146.514 289.945 126.885C295.205 113.935 302.664 104.543 302.664 104.543C302.664 104.543 186.245 108.496 214.841 164.07C214.841 164.07 225.877 135.171 261.382 125.414C261.382 125.414 234.217 137.869 222.697 165.376Z"/><path fill="#113A10" d="M100.38 135.544C61.7938 94.6064 81.2135 40.9413 143.742 15.6727C178.917 1.46721 220.233 -0.728179 256.53 7.35029C214.841 -4.02127 165.681 -2.53615 124.311 14.1732C56.0724 41.7448 34.8812 100.317 76.9995 144.993C99.7311 169.113 136.26 184.252 175.804 188.743C174.109 183.384 172.888 177.981 172.184 172.564C143.346 166.387 117.566 153.774 100.38 135.544Z"/><mask id="mask0_1080_2593" style="mask-type:luminance" width="168" height="162" x="178" y="29" maskUnits="userSpaceOnUse"><path fill="#fff" d="M178.531 29.4192H345.42L311 107.5L178.531 190.192V29.4192Z"/></mask><g mask="url(#mask0_1080_2593)"><path fill="#49BD44" d="M283.475 163.934C259.72 173.533 233.148 177.63 207.226 176.798C191.712 143.666 197.852 107.585 224.071 77.5313C231.399 70.4286 254.758 50.627 289.724 47.8863C289.724 47.8863 254.714 55.807 229.44 83.0413C276.29 99.0835 301.959 74.6902 319.717 55.2043C331.435 42.3548 343.857 33.7669 343.857 33.7669C343.857 33.7669 226.789 16.1105 221.673 72.71C182.8 106.236 170.136 149.585 186.024 189.661C191.778 190.042 197.566 190.171 203.364 190.099L203.375 190.128C204.431 190.113 205.477 190.085 206.533 190.056C206.907 190.049 207.27 190.042 207.644 190.034C209.713 189.97 211.792 189.869 213.872 189.747C214.07 189.733 214.268 189.733 214.466 189.719V189.704C235.91 188.37 257.233 183.886 276.818 175.972C318.188 159.263 342.251 131.161 345.42 101.666C340.182 126.526 318.65 149.721 283.475 163.934Z"/></g><path fill="#113A10" d="M36.87 237.541V229.965H0V271.426H36.87V263.821H13.2912V254.437H34.1853V246.954H13.2912V237.541H36.87Z"/><path fill="#113A10" d="M50.4668 259.603H82.0115V252.687H50.4668V259.603Z"/><path fill="#113A10" d="M125.964 272C135.69 272 142.556 269.618 146.649 265.686V271.426H157.036V248.898H127.152V255.814H144.537C142.732 261.87 135.25 264.51 127.108 264.51C115.104 264.51 107.359 259.057 107.359 250.591C107.359 241.817 115.633 236.881 126.624 236.881C133.71 236.881 139.695 238.918 143.304 243.108L154.615 239.148C149.07 232.92 138.903 229.391 126.624 229.391C107.931 229.391 94.1113 237.684 94.1113 250.792C94.1113 263.735 107.623 272 125.964 272Z"/><path fill="#113A10" d="M200.675 272C219.336 272 233.155 263.678 233.155 250.677C233.155 237.656 219.336 229.391 200.675 229.391C181.981 229.391 168.162 237.656 168.162 250.677C168.162 263.678 181.981 272 200.675 272ZM200.675 264.108C189.727 264.108 181.321 259.086 181.321 250.677C181.321 242.305 189.727 237.311 200.675 237.311C211.634 237.311 220.04 242.305 220.04 250.677C220.04 259.086 211.634 264.108 200.675 264.108Z"/><path fill="#113A10" d="M290.525 229.965V259.43L262.193 229.965H247.098V271.426H260.257V241.788L288.413 271.426H303.684V229.965H290.525Z"/><path fill="#113A10" d="M364.488 271.426H378L354.586 229.964H338.445L315.031 271.426H328.543L333.164 262.874H359.867L364.488 271.426ZM337.037 255.671L346.543 238.086L355.994 255.671H337.037Z"/></svg>